<?xml version="1.0" standalone="no"?><!DOCTYPE svg PUBLIC "-//W3C//DTD SVG 1.1//EN" "http://www.w3.org/Graphics/SVG/1.1/DTD/svg11.dtd"><svg t="1643039516359" class="icon" viewBox="0 0 1025 1024" version="1.1" xmlns="http://www.w3.org/2000/svg" p-id="1434" xmlns:xlink="http://www.w3.org/1999/xlink" width="200.1953125" height="200"><defs><style type="text/css"></style></defs><path d="M512.494626 68.184229L61.111074 857.224393s418.36725 240.375993 902.791836 0L512.494626 68.184229z" fill="#69DB94" p-id="1435"></path><path d="M514.592666 994.969561h-0.049463c-272.580284-0.012366-460.946327-106.410595-468.831493-110.940547a30.914141 30.914141 0 0 1-11.434111-42.162766l451.387675-789.036042a30.914141 30.914141 0 0 1 53.666948 0L990.736384 841.866248a30.922385 30.922385 0 0 1-13.091108 43.04485c-147.17192 73.031566-302.966824 110.058463-463.05261 110.058463z m-410.461474-150.69201c60.039383 28.045309 213.010796 88.855484 410.412011 88.86785h0.045341c139.793745 0.004122 276.17869-30.08152 405.935644-89.482011L512.494626 130.437065 104.131192 844.277551z" fill="#6E6E96" p-id="1436"></path><path d="M512.494626 68.184229L118.549547 756.811142s365.128978 209.783359 787.910768 0L512.494626 68.184229z" fill="#DE5F5F" p-id="1437"></path><path d="M461.737729 417.023516m-21.066957 0a21.066956 21.066956 0 1 0 42.133913 0 21.066956 21.066956 0 1 0-42.133913 0Z" fill="#6E6E96" p-id="1438"></path><path d="M539.686705 326.445083m-9.212414 0a9.212414 9.212414 0 1 0 18.424827 0 9.212414 9.212414 0 1 0-18.424827 0Z" fill="#6E6E96" opacity=".33" p-id="1439"></path><path d="M683.820795 640.718239m-25.675225 0a25.675224 25.675224 0 1 0 51.350449 0 25.675224 25.675224 0 1 0-51.350449 0Z" fill="#6E6E96" p-id="1440"></path><path d="M527.341658 697.49721m-14.294699 0a14.294699 14.294699 0 1 0 28.589397 0 14.294699 14.294699 0 1 0-28.589397 0Z" fill="#6E6E96" p-id="1441"></path><path d="M419.61206 593.976058m-21.066957 0a21.066956 21.066956 0 1 0 42.133913 0 21.066956 21.066956 0 1 0-42.133913 0Z" fill="#6E6E96" opacity=".25" p-id="1442"></path><path d="M541.792988 530.775188m-10.531417 0a10.531417 10.531417 0 1 0 21.062834 0 10.531417 10.531417 0 1 0-21.062834 0Z" fill="#6E6E96" p-id="1443"></path><path d="M740.599767 779.085811m-7.901655 0a7.901654 7.901654 0 1 0 15.803309 0 7.901654 7.901654 0 1 0-15.803309 0Z" fill="#6E6E96" opacity=".23" p-id="1444"></path><path d="M305.106082 697.49721m-14.294699 0a14.294699 14.294699 0 1 0 28.589398 0 14.294699 14.294699 0 1 0-28.589398 0Z" fill="#6E6E96" p-id="1445"></path><path d="M493.958507 93.628628L187.11299 671.224313s260.1528 149.46781 561.380187 0L493.958507 93.628628z" fill="#FF6E6E" p-id="1446"></path><path d="M514.328865 880.962331h-0.04534c-238.929211-0.012366-404.212696-93.368949-411.12922-97.342446a30.914141 30.914141 0 0 1-11.43411-42.162766l393.945079-688.626913a30.914141 30.914141 0 0 1 53.666948 0l393.961567 688.626913a30.922385 30.922385 0 0 1-13.091108 43.044849c-128.990283 64.004637-265.548348 96.460363-405.873816 96.460363z m-352.689127-137.217566c54.528422 25.003357 185.179825 75.381041 352.647908 75.389285h0.041219c120.02106 0 237.165044-25.530958 348.719752-75.953983L512.494626 130.437065l-350.854888 613.3077z" fill="#6E6E96" p-id="1447"></path><path d="M649.398929 718.794993m-52.393286 0a52.393286 52.393286 0 1 0 104.786572 0 52.393286 52.393286 0 1 0-104.786572 0Z" fill="#DE5F5F" p-id="1448"></path><path d="M563.927513 719.792489m-36.589977 0a36.589977 36.589977 0 1 0 73.179954 0 36.589977 36.589977 0 1 0-73.179954 0Z" fill="#DE5F5F" p-id="1449"></path><path d="M440.679016 615.043014m-24.09242 0a24.09242 24.09242 0 1 0 48.184841 0 24.09242 24.09242 0 1 0-48.184841 0Z" fill="#FFFFFF" p-id="1450"></path><path d="M330.558725 737.244552m-39.74322 0a39.743219 39.743219 0 1 0 79.486439 0 39.743219 39.743219 0 1 0-79.486439 0Z" fill="#DE5F5F" p-id="1451"></path><path d="M533.549217 438.069863m-21.046347 0a21.046347 21.046347 0 1 0 42.092694 0 21.046347 21.046347 0 1 0-42.092694 0Z" fill="#FFFFFF" p-id="1452"></path><path d="M630.912273 606.819853m-33.910751 0a33.910752 33.910752 0 1 0 67.821503 0 33.910752 33.910752 0 1 0-67.821503 0Z" fill="#FFFFFF" opacity=".6" p-id="1453"></path></svg>